<?xml version="1.0" encoding="UTF-8" standalone="no"?>
<!DOCTYPE svg PUBLIC "-//W3C//DTD SVG 1.1//EN" "http://www.w3.org/Graphics/SVG/1.1/DTD/svg11.dtd">
<svg width="100%" height="100%" viewBox="0 0 128 128" version="1.1" xmlns="http://www.w3.org/2000/svg" xmlns:xlink="http://www.w3.org/1999/xlink" xml:space="preserve" xmlns:serif="http://www.serif.com/" style="fill-rule:evenodd;clip-rule:evenodd;stroke-linejoin:round;stroke-miterlimit:2;">
    <g transform="matrix(1.8263,0,0,1.8263,-57.3892,-80.4272)">
        <path d="M68.699,47.301L72.537,47.806L70.305,64.76L76.849,48.961L80.425,50.443L73.881,66.241L84.291,52.675L87.362,55.031L76.952,68.597L90.518,58.188L92.875,61.258L79.308,71.668L95.107,65.124L96.588,68.7L80.79,75.244L97.743,73.012L98.249,76.85L81.295,79.082L98.249,81.314L97.743,85.152L80.79,82.92L96.588,89.464L95.107,93.04L79.308,86.496L92.875,96.906L90.518,99.976L76.952,89.566L87.362,103.133L84.291,105.489L73.881,91.923L80.425,107.721L76.849,109.203L70.305,93.404L72.537,110.358L68.699,110.863L66.467,93.909L64.235,110.863L60.398,110.358L62.63,93.404L56.086,109.203L52.51,107.721L59.054,91.923L48.644,105.489L45.573,103.133L55.983,89.566L42.416,99.976L40.06,96.906L53.627,86.496L37.828,93.04L36.347,89.464L52.145,82.92L35.191,85.152L34.686,81.314L51.64,79.082L34.686,76.85L35.191,73.012L52.145,75.244L36.347,68.7L37.828,65.124L53.627,71.668L40.06,61.258L42.416,58.188L55.983,68.597L45.573,55.031L48.644,52.675L59.054,66.241L52.51,50.443L56.086,48.961L62.63,64.76L60.398,47.806L64.235,47.301L66.467,64.255L68.699,47.301Z" style="fill:rgb(255,164,37);"/>
    </g>
</svg>
